<svg width="383" height="110" viewBox="0 0 383 110" fill="none" xmlns="http://www.w3.org/2000/svg">
<path d="M4.74063 109C2.34063 109 0.260625 107.08 0.260625 104.68V20.52C0.260625 16.04 1.06063 10.44 9.54063 10.44C14.3406 10.44 18.5006 15.24 18.5006 19.4V89.64C18.5006 93.48 20.2606 93.96 22.1806 93.96C29.5406 93.96 32.9006 93.48 40.2606 93.48C43.3006 93.48 44.1006 97.48 44.1006 100.36C44.1006 104.68 40.7406 109.16 37.8606 109.16C35.1406 109.16 32.5806 109.16 30.3406 109.16L17.0606 109C14.8206 109 7.46063 109 4.74063 109ZM3.14063 21.16C4.42063 21.16 7.46063 14.44 7.62063 13.16C7.62063 12.68 6.98063 12.36 6.34063 12.36C4.10063 12.52 2.02063 18.44 2.34063 20.2C2.34063 20.68 2.66063 21.16 3.14063 21.16ZM4.90063 99.56C6.98063 99.56 6.50063 88.68 6.50063 84.2C6.50063 82.44 6.18063 78.44 4.26063 78.44C2.98063 78.44 2.98063 87.08 2.98063 88.2C2.98063 89.48 3.30063 99.56 4.90063 99.56ZM7.62063 104.2C7.62063 103.24 6.98063 102.44 6.50063 102.44C5.38063 102.44 4.90063 103.24 4.90063 104.2C4.90063 105 5.38063 105.48 6.18063 105.48C6.82063 105.48 7.62063 105 7.62063 104.2ZM55.0269 108.84C52.7869 108.84 49.4269 108.2 49.4269 105.16C49.4269 103.08 51.6669 101 55.1869 101C56.6269 101 57.4269 99.56 57.4269 98.12V21.32C57.4269 19.72 55.1869 18.28 53.5869 18.28C49.1069 18.28 47.9869 16.2 47.9869 13.96C47.9869 11.08 51.9869 9.96 66.0669 9.96C78.7069 9.96 81.4269 10.6 81.4269 12.84C81.4269 15.88 78.2269 17.8 76.3069 18.44C75.3469 18.76 74.5469 19.72 74.5469 21.48V98.12C74.5469 99.08 74.7069 101 75.6669 101.32C77.7469 101.96 79.5069 102.28 80.1469 102.76C80.4669 103.08 80.9469 103.72 80.9469 104.68C80.9469 105.8 80.4669 107.08 79.6669 107.72C78.3869 108.84 73.4269 108.84 67.8269 109C63.0269 109.16 57.1069 108.84 55.0269 108.84ZM62.8669 85.16C62.8669 80.68 62.3869 77.32 61.4269 77.32C59.9869 77.32 59.5069 91.88 60.7869 93.16C62.0669 94.44 62.8669 93 62.8669 85.16ZM62.8669 96.68C62.8669 95.56 61.5869 95.56 61.5869 95.56C60.7869 95.56 59.9869 95.56 59.9869 96.68C59.9869 97.48 60.4669 97.96 61.4269 97.96C62.2269 97.96 62.8669 97.48 62.8669 96.68ZM93.3344 109C90.9344 109 88.8544 107.08 88.8544 104.68V20.52C88.8544 16.04 89.6544 10.44 98.1344 10.44C102.934 10.44 107.094 15.24 107.094 19.4V89.64C107.094 93.48 108.854 93.96 110.774 93.96C118.134 93.96 121.494 93.48 128.854 93.48C131.894 93.48 132.694 97.48 132.694 100.36C132.694 104.68 129.334 109.16 126.454 109.16C123.734 109.16 121.174 109.16 118.934 109.16L105.654 109C103.414 109 96.0544 109 93.3344 109ZM91.7344 21.16C93.0144 21.16 96.0544 14.44 96.2144 13.16C96.2144 12.68 95.5744 12.36 94.9344 12.36C92.6944 12.52 90.6144 18.44 90.9344 20.2C90.9344 20.68 91.2544 21.16 91.7344 21.16ZM93.4944 99.56C95.5744 99.56 95.0944 88.68 95.0944 84.2C95.0944 82.44 94.7744 78.44 92.8544 78.44C91.5744 78.44 91.5744 87.08 91.5744 88.2C91.5744 89.48 91.8944 99.56 93.4944 99.56ZM96.2144 104.2C96.2144 103.24 95.5744 102.44 95.0944 102.44C93.9744 102.44 93.4944 103.24 93.4944 104.2C93.4944 105 93.9744 105.48 94.7744 105.48C95.4144 105.48 96.2144 105 96.2144 104.2ZM188.803 109C186.403 109 184.323 107.08 184.323 104.68V20.52C184.323 16.04 185.123 10.44 193.603 10.44C198.403 10.44 202.563 15.24 202.563 19.4V89.64C202.563 93.48 204.323 93.96 206.243 93.96C213.603 93.96 216.963 93.48 224.323 93.48C227.363 93.48 228.163 97.48 228.163 100.36C228.163 104.68 224.803 109.16 221.923 109.16C219.203 109.16 216.643 109.16 214.403 109.16L201.123 109C198.883 109 191.523 109 188.803 109ZM187.203 21.16C188.483 21.16 191.523 14.44 191.683 13.16C191.683 12.68 191.043 12.36 190.403 12.36C188.163 12.52 186.083 18.44 186.403 20.2C186.403 20.68 186.723 21.16 187.203 21.16ZM188.963 99.56C191.043 99.56 190.563 88.68 190.563 84.2C190.563 82.44 190.243 78.44 188.323 78.44C187.043 78.44 187.043 87.08 187.043 88.2C187.043 89.48 187.363 99.56 188.963 99.56ZM191.683 104.2C191.683 103.24 191.043 102.44 190.563 102.44C189.443 102.44 188.963 103.24 188.963 104.2C188.963 105 189.443 105.48 190.243 105.48C190.883 105.48 191.683 105 191.683 104.2ZM242.769 19.56C237.329 19.56 233.489 15.88 233.489 10.44C233.489 4.68 237.329 0.679993 243.089 0.679993C248.849 0.679993 252.849 4.35999 252.849 9.63999C252.849 15.24 248.369 19.56 242.769 19.56ZM237.649 10.12C238.289 6.43999 241.329 6.75999 241.329 4.99999C241.329 4.04 240.849 3.4 239.729 3.4C237.169 3.4 235.249 6.92 235.249 10.12C235.249 11.56 235.409 14.28 236.689 14.28C237.649 14.28 237.489 10.76 237.649 10.12ZM242.609 109.64C237.489 109.64 234.609 107.08 234.609 103.88V33.8C234.609 29.8 236.369 23.08 242.609 23.08C248.849 23.08 251.569 28.84 251.569 33V103.88C251.569 107.24 247.729 109.64 242.609 109.64ZM237.489 38.6C238.769 38.6 237.969 32.68 238.769 29.96C238.929 29.16 239.729 27.08 239.089 27.08C236.849 27.08 236.049 32.52 236.049 34.44C236.049 36.36 236.529 38.6 237.489 38.6ZM266.329 109C261.049 109 259.129 106.28 259.129 98.6V22.28C259.129 13 260.569 10.44 266.809 10.44C270.809 10.44 275.609 12.04 275.609 17.64V19.88C275.609 24.2 275.769 26.28 276.249 26.28C277.849 26.28 279.609 9.8 295.129 9.8C308.729 9.8 314.649 22.6 314.649 52.04V104.04C314.649 107.24 311.449 109 305.689 109C299.929 109 297.529 105.96 297.529 103.56V53.48C297.529 31.4 295.129 27.08 289.369 27.08C280.249 27.08 276.409 44.68 276.409 66.28V101.8C276.409 108.2 269.209 109 266.329 109ZM262.329 26.6C263.449 26.6 264.409 14.12 264.409 13.8C264.409 13.32 264.249 12.52 263.929 12.52C261.689 12.52 261.049 20.04 261.049 21.48C261.049 23.08 261.529 26.6 262.329 26.6ZM303.449 104.36C303.449 101.8 301.369 102.6 301.369 99.4C301.369 96.04 301.049 95.56 300.089 95.56C299.129 95.56 298.809 97.48 298.809 99.56C298.809 103.88 300.409 106.6 302.009 106.6C302.649 106.6 303.449 105.8 303.449 104.36ZM266.169 104.84C266.169 102.92 263.609 103.08 263.609 100.04C263.609 97.96 263.129 96.68 262.489 96.68C262.009 96.68 261.529 98.44 261.529 100.84C261.529 104.04 263.129 107.08 264.889 107.08C265.369 107.08 266.169 106.12 266.169 104.84ZM328.989 109C320.189 109 321.309 98.12 321.309 92.2C321.309 86.92 321.309 81.64 321.309 76.36L321.149 44.68C321.149 39.4 321.149 34.12 321.149 28.84C321.149 17.48 322.109 10.44 330.589 10.44C335.389 10.44 339.869 14.76 339.869 21.16C339.869 24.2 339.069 51.72 340.509 51.72C343.069 51.72 362.109 10.44 369.309 10.44C373.309 10.44 379.069 12.84 379.069 18.28C379.069 23.56 355.549 55.24 355.549 57.16C355.549 60.04 382.589 95.08 382.589 101.32C382.589 106.76 374.109 109.16 370.909 109.16C367.869 109.16 364.509 104.36 361.949 99.88C360.029 96.36 348.989 78.6 345.149 73.32C344.509 72.36 343.389 72.04 342.429 73.32L340.829 75.4C339.869 76.68 339.549 78.12 339.549 80.52C339.549 81.96 339.549 83.24 339.549 84.2L339.709 89C339.709 89.96 339.709 91.08 339.709 92.68C339.709 103.4 336.509 109 328.989 109ZM324.189 19.24C326.109 19.56 328.829 15.72 329.309 13.96C329.469 13.32 328.669 12.68 328.029 12.68C326.429 12.68 323.549 17.32 323.709 18.6C323.709 18.92 323.869 19.24 324.189 19.24ZM365.149 19.72C366.589 19.88 370.269 15.08 369.949 13.48C369.949 13 369.469 12.84 369.309 12.84C367.869 12.36 363.709 17.64 364.029 18.76C364.189 19.24 364.509 19.56 365.149 19.72ZM326.589 96.04C326.589 94.28 326.589 83.72 324.989 83.72C323.549 83.72 323.229 89 323.229 89.96C323.229 91.56 323.229 100.36 325.629 100.36C326.589 100.36 326.589 96.52 326.589 96.04ZM371.389 105.64C371.389 104.36 368.349 99.56 366.909 99.56C366.429 99.56 366.269 100.52 366.269 101C366.269 102.44 368.509 106.6 370.429 106.6C370.909 106.6 371.389 106.12 371.389 105.64ZM328.029 104.04C328.349 102.92 327.389 101.64 326.269 101.64C324.989 101.64 324.189 102.92 324.509 104.04C324.829 104.84 325.469 105.64 326.269 105.64C327.069 105.64 327.709 104.84 328.029 104.04Z" fill="white"/>
</svg>
