<svg width="351" height="110" viewBox="0 0 351 110" fill="none" xmlns="http://www.w3.org/2000/svg">
<path d="M5.14688 109C2.74688 109 0.666875 107.08 0.666875 104.68V20.52C0.666875 16.04 1.46688 10.44 9.94688 10.44C14.7469 10.44 18.9069 15.24 18.9069 19.4V89.64C18.9069 93.48 20.6669 93.96 22.5869 93.96C29.9469 93.96 33.3069 93.48 40.6669 93.48C43.7069 93.48 44.5069 97.48 44.5069 100.36C44.5069 104.68 41.1469 109.16 38.2669 109.16C35.5469 109.16 32.9869 109.16 30.7469 109.16L17.4669 109C15.2269 109 7.86688 109 5.14688 109ZM3.54688 21.16C4.82688 21.16 7.86688 14.44 8.02688 13.16C8.02688 12.68 7.38688 12.36 6.74688 12.36C4.50688 12.52 2.42688 18.44 2.74688 20.2C2.74688 20.68 3.06688 21.16 3.54688 21.16ZM5.30688 99.56C7.38688 99.56 6.90688 88.68 6.90688 84.2C6.90688 82.44 6.58688 78.44 4.66688 78.44C3.38688 78.44 3.38688 87.08 3.38688 88.2C3.38688 89.48 3.70688 99.56 5.30688 99.56ZM8.02688 104.2C8.02688 103.24 7.38688 102.44 6.90688 102.44C5.78688 102.44 5.30688 103.24 5.30688 104.2C5.30688 105 5.78688 105.48 6.58688 105.48C7.22688 105.48 8.02688 105 8.02688 104.2ZM59.1131 19.56C53.6731 19.56 49.8331 15.88 49.8331 10.44C49.8331 4.68 53.6731 0.679993 59.4331 0.679993C65.1931 0.679993 69.1931 4.35999 69.1931 9.63999C69.1931 15.24 64.7131 19.56 59.1131 19.56ZM53.9931 10.12C54.6331 6.43999 57.6731 6.75999 57.6731 4.99999C57.6731 4.04 57.1931 3.4 56.0731 3.4C53.5131 3.4 51.5931 6.92 51.5931 10.12C51.5931 11.56 51.7531 14.28 53.0331 14.28C53.9931 14.28 53.8331 10.76 53.9931 10.12ZM58.9531 109.64C53.8331 109.64 50.9531 107.08 50.9531 103.88V33.8C50.9531 29.8 52.7131 23.08 58.9531 23.08C65.1931 23.08 67.9131 28.84 67.9131 33V103.88C67.9131 107.24 64.0731 109.64 58.9531 109.64ZM53.8331 38.6C55.1131 38.6 54.3131 32.68 55.1131 29.96C55.2731 29.16 56.0731 27.08 55.4331 27.08C53.1931 27.08 52.3931 32.52 52.3931 34.44C52.3931 36.36 52.8731 38.6 53.8331 38.6ZM86.3531 109C75.4731 109 74.8331 101.48 74.8331 90.92V18.92C74.8331 14.28 77.0731 10.12 83.3131 10.12C89.5531 10.12 91.6331 15.56 91.6331 18.44V87.08C91.6331 91.4 91.7931 93.96 93.7131 93.96H95.4731C98.6731 93.96 100.433 97.48 100.433 101.48C100.433 106.92 97.7131 109 93.3931 109H86.3531ZM78.0331 25.32C79.1531 25.32 79.6331 18.92 81.2331 16.2C82.3531 14.28 83.4731 11.88 81.7131 11.88C79.3131 11.88 76.7531 15.08 76.7531 20.84C76.7531 24.04 77.5531 25.32 78.0331 25.32ZM156.397 109C153.997 109 151.917 107.08 151.917 104.68V20.52C151.917 16.04 152.717 10.44 161.197 10.44C165.997 10.44 170.157 15.24 170.157 19.4V89.64C170.157 93.48 171.917 93.96 173.837 93.96C181.197 93.96 184.557 93.48 191.917 93.48C194.957 93.48 195.757 97.48 195.757 100.36C195.757 104.68 192.397 109.16 189.517 109.16C186.797 109.16 184.237 109.16 181.997 109.16L168.717 109C166.477 109 159.117 109 156.397 109ZM154.797 21.16C156.077 21.16 159.117 14.44 159.277 13.16C159.277 12.68 158.637 12.36 157.997 12.36C155.757 12.52 153.677 18.44 153.997 20.2C153.997 20.68 154.317 21.16 154.797 21.16ZM156.557 99.56C158.637 99.56 158.157 88.68 158.157 84.2C158.157 82.44 157.837 78.44 155.917 78.44C154.637 78.44 154.637 87.08 154.637 88.2C154.637 89.48 154.957 99.56 156.557 99.56ZM159.277 104.2C159.277 103.24 158.637 102.44 158.157 102.44C157.037 102.44 156.557 103.24 156.557 104.2C156.557 105 157.037 105.48 157.837 105.48C158.477 105.48 159.277 105 159.277 104.2ZM210.363 19.56C204.923 19.56 201.083 15.88 201.083 10.44C201.083 4.68 204.923 0.679993 210.683 0.679993C216.443 0.679993 220.443 4.35999 220.443 9.63999C220.443 15.24 215.963 19.56 210.363 19.56ZM205.243 10.12C205.883 6.43999 208.923 6.75999 208.923 4.99999C208.923 4.04 208.443 3.4 207.323 3.4C204.763 3.4 202.843 6.92 202.843 10.12C202.843 11.56 203.003 14.28 204.283 14.28C205.243 14.28 205.083 10.76 205.243 10.12ZM210.203 109.64C205.083 109.64 202.203 107.08 202.203 103.88V33.8C202.203 29.8 203.963 23.08 210.203 23.08C216.443 23.08 219.163 28.84 219.163 33V103.88C219.163 107.24 215.323 109.64 210.203 109.64ZM205.083 38.6C206.363 38.6 205.563 32.68 206.363 29.96C206.523 29.16 207.323 27.08 206.683 27.08C204.443 27.08 203.643 32.52 203.643 34.44C203.643 36.36 204.123 38.6 205.083 38.6ZM233.923 109C228.643 109 226.723 106.28 226.723 98.6V22.28C226.723 13 228.163 10.44 234.403 10.44C238.403 10.44 243.203 12.04 243.203 17.64V19.88C243.203 24.2 243.363 26.28 243.843 26.28C245.443 26.28 247.203 9.8 262.723 9.8C276.323 9.8 282.243 22.6 282.243 52.04V104.04C282.243 107.24 279.043 109 273.283 109C267.523 109 265.123 105.96 265.123 103.56V53.48C265.123 31.4 262.723 27.08 256.963 27.08C247.843 27.08 244.003 44.68 244.003 66.28V101.8C244.003 108.2 236.803 109 233.923 109ZM229.923 26.6C231.043 26.6 232.003 14.12 232.003 13.8C232.003 13.32 231.843 12.52 231.523 12.52C229.283 12.52 228.643 20.04 228.643 21.48C228.643 23.08 229.123 26.6 229.923 26.6ZM271.043 104.36C271.043 101.8 268.963 102.6 268.963 99.4C268.963 96.04 268.643 95.56 267.683 95.56C266.723 95.56 266.403 97.48 266.403 99.56C266.403 103.88 268.003 106.6 269.603 106.6C270.243 106.6 271.043 105.8 271.043 104.36ZM233.763 104.84C233.763 102.92 231.203 103.08 231.203 100.04C231.203 97.96 230.723 96.68 230.083 96.68C229.603 96.68 229.123 98.44 229.123 100.84C229.123 104.04 230.723 107.08 232.483 107.08C232.963 107.08 233.763 106.12 233.763 104.84ZM296.583 109C287.783 109 288.903 98.12 288.903 92.2C288.903 86.92 288.903 81.64 288.903 76.36L288.743 44.68C288.743 39.4 288.743 34.12 288.743 28.84C288.743 17.48 289.703 10.44 298.183 10.44C302.983 10.44 307.463 14.76 307.463 21.16C307.463 24.2 306.663 51.72 308.103 51.72C310.663 51.72 329.703 10.44 336.903 10.44C340.903 10.44 346.663 12.84 346.663 18.28C346.663 23.56 323.143 55.24 323.143 57.16C323.143 60.04 350.183 95.08 350.183 101.32C350.183 106.76 341.703 109.16 338.503 109.16C335.463 109.16 332.103 104.36 329.543 99.88C327.623 96.36 316.583 78.6 312.743 73.32C312.103 72.36 310.983 72.04 310.023 73.32L308.423 75.4C307.463 76.68 307.143 78.12 307.143 80.52C307.143 81.96 307.143 83.24 307.143 84.2L307.303 89C307.303 89.96 307.303 91.08 307.303 92.68C307.303 103.4 304.103 109 296.583 109ZM291.783 19.24C293.703 19.56 296.423 15.72 296.903 13.96C297.063 13.32 296.263 12.68 295.623 12.68C294.023 12.68 291.143 17.32 291.303 18.6C291.303 18.92 291.463 19.24 291.783 19.24ZM332.743 19.72C334.183 19.88 337.863 15.08 337.543 13.48C337.543 13 337.063 12.84 336.903 12.84C335.463 12.36 331.303 17.64 331.623 18.76C331.783 19.24 332.103 19.56 332.743 19.72ZM294.183 96.04C294.183 94.28 294.183 83.72 292.583 83.72C291.143 83.72 290.823 89 290.823 89.96C290.823 91.56 290.823 100.36 293.223 100.36C294.183 100.36 294.183 96.52 294.183 96.04ZM338.983 105.64C338.983 104.36 335.943 99.56 334.503 99.56C334.023 99.56 333.863 100.52 333.863 101C333.863 102.44 336.103 106.6 338.023 106.6C338.503 106.6 338.983 106.12 338.983 105.64ZM295.623 104.04C295.943 102.92 294.983 101.64 293.863 101.64C292.583 101.64 291.783 102.92 292.103 104.04C292.423 104.84 293.063 105.64 293.863 105.64C294.663 105.64 295.303 104.84 295.623 104.04Z" fill="white"/>
</svg>
