<svg width="471" height="80" viewBox="0 0 471 80" fill="none" xmlns="http://www.w3.org/2000/svg">
<path d="M20.8638 79.125C10.4888 79.125 0.48877 70.875 0.48877 62.125C0.48877 57 3.86377 53.25 8.36377 53.5C11.2388 53.625 12.3638 55.375 12.3638 59.75C12.3638 65.875 14.4888 68.5 19.6138 68.5C24.8638 68.5 27.6138 65.75 27.6138 60.375C27.6138 53.25 22.8638 48.875 18.3638 44.375C6.36377 32.375 1.73877 25.125 1.73877 18.375C1.73877 7 9.36377 -1.60933e-06 21.6138 -1.60933e-06C30.2388 -1.60933e-06 39.6138 6.12499 39.6138 11.625C39.6138 16.625 36.2388 21.5 31.9888 21.5C29.9888 21.5 27.1138 19.75 26.9888 16.875C26.8638 13.5 24.7388 11.625 21.1138 11.625C17.4888 11.625 15.8638 13.5 15.8638 17.625C15.8638 22.75 18.3638 26.75 27.2388 35.875C38.1138 47 41.6138 52.75 41.6138 59.125C41.6138 70.875 32.9888 79.125 20.8638 79.125ZM8.98877 10.125C9.61377 8.99999 10.9888 7.125 12.2388 6.12499C13.4888 5.25 13.9888 3.87499 13.4888 3.87499C11.3638 3.625 6.36377 9.62499 6.11377 12.5C6.11377 13 6.36377 13.25 6.86377 13.25C7.73877 13.375 7.98877 11.75 8.98877 10.125ZM6.98877 15.75C6.98877 15.25 6.61377 14.875 6.23877 14.875C5.73877 14.875 5.23877 15.5 5.23877 15.875C5.23877 16.25 5.48877 16.5 6.11377 16.625C6.48877 16.625 6.86377 16.25 6.98877 15.75ZM5.11377 61.875C5.98877 59.625 7.11377 58.25 7.23877 56.875C7.23877 56.5 7.23877 56.25 6.86377 56.25C4.11377 56 1.98877 60.875 3.23877 64.875C3.48877 65.5 3.86377 66.125 4.23877 66.125C5.11377 66.125 4.23877 64.125 5.11377 61.875ZM83.0415 78C77.2915 78 76.7915 70.75 76.7915 66.5V48.25C76.7915 47 76.9165 44.5 75.1665 45L61.7915 48.875C60.2915 49.25 59.5415 49.25 59.5415 50.875V64.875C59.5415 69 58.6665 78 53.0415 78C46.0415 78 45.5415 70.125 45.5415 64.875V10.25C45.5415 6.12499 48.0415 1.49999 52.6665 1.49999C57.4165 1.49999 59.5415 6.375 59.5415 10.5V35.625C59.5415 36.75 59.6665 38.5 61.1665 38.125L75.4165 34.375C76.9165 34 76.7915 33.125 76.7915 32V10.5C76.7915 6.875 77.6665 0.999993 82.4165 0.999993C87.9165 0.999993 90.7915 5.875 90.7915 10.875V66.625C90.7915 71.125 88.5415 78 83.0415 78ZM79.4165 8.99999C80.5415 8.99999 82.5415 4.37499 82.5415 3.375C82.5415 3.125 82.2915 3 82.0415 3C80.0415 3 78.7915 6.12499 78.7915 7.75C78.7915 8.125 78.9165 8.99999 79.4165 8.99999ZM50.7915 74.25C50.4165 72.125 49.1665 71.75 49.1665 67.25C49.1665 66.625 49.1665 65.125 48.2915 65.125C47.6665 65.125 47.5415 66.75 47.5415 67.25C47.5415 68.75 48.0415 74.625 50.0415 74.625L50.7915 74.25ZM81.9165 75.5C81.9165 75.125 81.6665 75 81.5415 74.75C80.4165 73.25 79.6665 70.25 79.6665 68.375L79.4165 67.875C78.6665 67.875 78.5415 70.25 78.5415 70.75C78.5415 72.625 79.0415 75.875 81.5415 75.875C81.7915 75.875 81.9165 75.625 81.9165 75.5ZM117.242 78.875C99.7417 78.875 94.4917 59.125 94.4917 40.75C94.4917 22.375 99.6167 0.124997 117.242 0.124997C134.867 0.124997 139.742 19.5 139.742 39.625C139.742 59.75 134.742 78.875 117.242 78.875ZM103.242 14.875C103.992 13 106.117 9.5 108.117 7.87499C109.117 7 107.867 5.875 107.492 5.875C105.617 5.875 100.992 13.5 100.992 16.625C100.992 17.375 101.117 17.625 101.617 17.625C101.867 17.625 102.492 16.75 103.242 14.875ZM117.242 71C125.492 71 127.117 50 127.117 39.5C127.117 32.25 125.242 7.87499 117.242 7.87499C109.117 7.87499 107.742 32.875 107.742 39.625C107.742 50.125 109.367 71 117.242 71ZM101.492 20.375C101.492 18.75 101.117 18.5 100.367 18.5C99.6167 18.5 99.1167 19.625 99.1167 20.625C99.1167 22 99.8667 22.375 100.367 22.375C100.617 22.375 101.492 21.75 101.492 20.375ZM148.942 78C144.817 78 143.317 75 143.317 70V12.5C143.317 3.5 144.942 0.749996 149.317 0.749996C153.067 0.749996 155.567 4 155.567 9.75C155.567 11.5 155.442 12.5 155.942 12.5C156.317 12.5 156.317 11.875 156.567 11.25C157.442 8.99999 160.192 0.749996 167.692 0.749996C171.067 0.749996 173.192 3 173.192 6.12499C173.192 9.375 171.942 13 168.567 13C161.817 13 156.692 26.75 156.692 37.125V71.125C156.692 76.125 152.567 78 148.942 78ZM146.692 6C146.942 4.75 148.067 2.74999 146.817 2.74999C146.067 2.74999 144.942 4.99999 144.942 6.74999C144.942 8.49999 145.442 9.375 145.817 9.375C146.567 9.375 146.567 6.625 146.692 6ZM146.692 71.75C146.192 69.75 146.067 67.875 145.567 67.875C145.192 67.875 144.942 68.75 144.942 70C144.942 73 145.942 75.75 147.067 75.75C147.442 75.75 147.942 75.75 147.942 74.875C147.942 74.375 147.067 73.375 146.692 71.75ZM190.212 78C177.462 78 177.462 65.25 177.462 52.25V30.75H176.087C173.587 30.75 172.212 28.75 172.212 25.875C172.212 23 173.087 21.25 176.087 21.25H177.462V8.99999C177.462 2.74999 179.712 0.749996 183.462 0.749996C187.212 0.749996 190.337 3.125 190.337 9.375V21.25H194.212C197.212 21.25 198.337 22.75 198.337 25.125C198.337 28.375 197.337 30.75 194.712 30.75H190.337V54.25C190.337 63.375 190.587 66.875 192.337 66.875C192.712 66.875 192.962 66.875 193.337 66.875L195.337 66.5C198.837 66.5 199.962 69 199.962 72.25C199.962 74.75 199.087 78 190.212 78ZM180.712 6.375C181.337 4.625 182.962 2.5 181.587 2.5C179.962 2.5 178.962 6 178.962 7.375C178.962 9.25 179.212 10 179.587 10C180.212 10 180.337 7.5 180.712 6.375ZM174.712 25C174.712 24.125 175.087 22.75 174.837 22.75C173.962 22.75 173.337 24.25 173.337 26C173.337 27.125 173.712 28.75 174.587 28.75C175.337 28.75 174.712 26.5 174.712 25ZM184.337 71.75C184.337 71.125 182.212 67.875 182.087 65.5C181.962 64.125 181.087 63.375 180.587 63.375C179.587 63.375 179.712 65.25 179.712 66.125C179.712 67.5 181.462 73.125 183.212 73.125C183.712 73.125 184.337 72.25 184.337 71.75ZM227.387 79.25C212.512 79.25 202.512 64.125 202.512 41.5C202.512 17.5 213.762 0.124997 229.262 0.124997C240.637 0.124997 248.637 9.375 248.012 21.75C247.262 36.25 235.387 49.625 220.262 49.625C218.637 49.625 218.137 50 218.137 51.375C218.137 62 222.262 67 228.137 67C232.387 67 235.762 63.375 235.762 58.625C235.762 54.625 238.137 52 241.512 52C245.262 52 247.762 55.375 247.762 60.625C247.762 70.75 238.512 79.25 227.387 79.25ZM211.137 18.375C212.262 18.375 217.762 6.875 222.762 6.375C223.637 6.25 224.512 5.75 224.387 5.25C224.387 4.625 223.637 4.125 222.762 4.25C217.137 4.625 210.262 14.125 210.512 17.875C210.637 18.5 211.012 18.5 211.137 18.375ZM217.762 38.625C218.012 39 218.637 39.125 219.512 39.125C228.137 39.125 236.012 29.75 236.012 21.25C236.012 15.875 233.137 12 229.262 12C220.762 12 216.012 36 217.762 38.625ZM209.512 19.625C208.762 19.75 208.137 21.125 208.262 22.375C208.387 23 208.512 23.5 208.762 23.375C209.637 23.375 210.387 21.375 210.137 20.25C210.012 19.875 209.887 19.5 209.512 19.625ZM258.462 78C254.337 78 252.837 75.875 252.837 69.875V10.25C252.837 3 253.962 0.999993 258.837 0.999993C261.962 0.999993 265.712 2.25 265.712 6.625V8.37499C265.712 11.75 265.837 13.375 266.212 13.375C267.462 13.375 268.837 0.499999 280.962 0.499999C291.587 0.499999 296.212 10.5 296.212 33.5V74.125C296.212 76.625 293.712 78 289.212 78C284.712 78 282.837 75.625 282.837 73.75V34.625C282.837 17.375 280.962 14 276.462 14C269.337 14 266.337 27.75 266.337 44.625V72.375C266.337 77.375 260.712 78 258.462 78ZM255.337 13.625C256.212 13.625 256.962 3.87499 256.962 3.625C256.962 3.24999 256.837 2.62499 256.587 2.62499C254.837 2.62499 254.337 8.49999 254.337 9.62499C254.337 10.875 254.712 13.625 255.337 13.625ZM287.462 74.375C287.462 72.375 285.837 73 285.837 70.5C285.837 67.875 285.587 67.5 284.837 67.5C284.087 67.5 283.837 69 283.837 70.625C283.837 74 285.087 76.125 286.337 76.125C286.837 76.125 287.462 75.5 287.462 74.375ZM258.337 74.75C258.337 73.25 256.337 73.375 256.337 71C256.337 69.375 255.962 68.375 255.462 68.375C255.087 68.375 254.712 69.75 254.712 71.625C254.712 74.125 255.962 76.5 257.337 76.5C257.712 76.5 258.337 75.75 258.337 74.75ZM359.339 78.5C344.214 78.5 334.964 67.125 334.964 50.375V11.75C334.964 8.37499 336.089 0.999993 341.589 0.999993C347.089 0.999993 349.214 3 349.214 12V49.5C349.214 57.625 348.214 66.625 359.839 66.625C370.839 66.625 370.214 52.625 370.214 42.5V11.625C370.214 8.25 371.214 0.749996 376.464 0.749996C381.589 0.749996 384.339 4 384.339 11.5V47.25C384.339 66.125 375.839 78.5 359.339 78.5ZM373.714 8.49999C373.714 7.87499 374.214 6.25 375.339 4.99999C376.714 3.24999 376.839 2.62499 375.339 2.62499C374.589 2.62499 373.714 3.625 373.214 4.5C372.839 5.25 372.089 6.74999 371.964 8.25C371.964 9.125 372.089 10 372.839 10C373.714 10 373.714 9.375 373.714 8.49999ZM340.214 6.74999C340.839 5.25 342.089 4.37499 342.089 3.24999C342.089 2.875 341.964 2.62499 341.714 2.62499C341.214 2.62499 340.089 3 339.214 4.25C336.714 7.75 336.589 11.125 337.589 11.125C338.339 11.125 339.339 9.125 340.214 6.74999ZM348.839 72C348.839 71.5 347.339 70.5 345.964 69C344.714 67.625 342.589 65.25 341.464 62.75C340.714 61.125 339.839 60.5 339.464 60.5C339.089 60.5 338.964 60.75 338.964 61.375C339.089 64.125 344.714 72.75 348.089 72.75C348.589 72.75 348.839 72.5 348.839 72ZM351.714 73.125C351.714 73 351.214 72.25 350.714 72.25C349.964 72.375 349.589 73 349.589 73.375C349.714 73.875 349.839 74.375 350.589 74.25C351.214 74.25 351.714 73.75 351.714 73.125ZM425.321 78C421.571 78 420.321 74.75 419.196 72.5C416.946 68 409.446 48.625 405.196 48.625H403.946C403.071 48.625 402.321 50 402.321 52V69.5C402.321 74.625 399.571 78 394.821 78C389.696 78 388.571 72.25 388.571 69.375V12.125C388.571 3.5 389.446 0.999993 396.821 0.999993H407.196C418.196 0.999993 429.196 7.375 429.196 22.375C429.196 35.125 422.071 42.375 416.571 44.375C416.196 44.5 415.821 44.875 415.821 45.375C415.821 45.625 415.946 46 416.446 46.5C423.321 53.375 431.821 61.75 431.821 73C431.821 76.375 428.321 78 425.321 78ZM407.821 36.625C412.821 36.625 416.821 30.5 416.821 22.375C416.821 15.875 414.696 12.5 408.196 12.25L405.196 12.125C403.071 12 402.821 12.625 402.821 15.125V35C402.821 36.125 403.571 36.625 405.071 36.625H407.821ZM394.571 74.625C394.571 73.75 393.696 74 393.321 73.125C391.946 69.875 392.071 66 391.071 66C390.696 66 390.196 66.75 390.196 68.25C390.196 69.625 391.446 75.875 393.571 75.875C393.946 75.875 394.571 75.5 394.571 74.625ZM424.946 75.5C424.821 75 423.571 74.25 423.196 73.625C422.821 73 421.821 70.625 421.696 69C421.696 67.625 421.071 66.125 420.696 66.125C420.071 66.25 419.821 68.25 419.946 70.5C420.071 72.75 421.571 76.375 423.821 76.25C424.446 76.25 424.946 75.875 424.946 75.5ZM439.35 78C437.475 78 435.85 76.5 435.85 74.625V8.875C435.85 5.375 436.475 0.999993 443.1 0.999993C446.85 0.999993 450.1 4.75 450.1 8V62.875C450.1 65.875 451.475 66.25 452.975 66.25C458.725 66.25 461.35 65.875 467.1 65.875C469.475 65.875 470.1 69 470.1 71.25C470.1 74.625 467.475 78.125 465.225 78.125C463.1 78.125 461.1 78.125 459.35 78.125L448.975 78C447.225 78 441.475 78 439.35 78ZM438.1 9.375C439.1 9.375 441.475 4.125 441.6 3.125C441.6 2.74999 441.1 2.5 440.6 2.5C438.85 2.62499 437.225 7.24999 437.475 8.625C437.475 8.99999 437.725 9.375 438.1 9.375ZM439.475 70.625C441.1 70.625 440.725 62.125 440.725 58.625C440.725 57.25 440.475 54.125 438.975 54.125C437.975 54.125 437.975 60.875 437.975 61.75C437.975 62.75 438.225 70.625 439.475 70.625ZM441.6 74.25C441.6 73.5 441.1 72.875 440.725 72.875C439.85 72.875 439.475 73.5 439.475 74.25C439.475 74.875 439.85 75.25 440.475 75.25C440.975 75.25 441.6 74.875 441.6 74.25Z" fill="white"/>
</svg>
