<svg width="461" height="74" viewBox="0 0 461 74" fill="none" xmlns="http://www.w3.org/2000/svg">
<path d="M19.1102 73.026C9.64816 73.026 0.528156 65.502 0.528156 57.522C0.528156 52.848 3.60616 49.428 7.71016 49.656C10.3322 49.77 11.3582 51.366 11.3582 55.356C11.3582 60.942 13.2962 63.336 17.9702 63.336C22.7582 63.336 25.2662 60.828 25.2662 55.926C25.2662 49.428 20.9342 45.438 16.8302 41.334C5.88616 30.39 1.66816 23.778 1.66816 17.622C1.66816 7.248 8.62216 0.863999 19.7942 0.863999C27.6602 0.863999 36.2102 6.44999 36.2102 11.466C36.2102 16.026 33.1322 20.472 29.2562 20.472C27.4322 20.472 24.8102 18.876 24.6962 16.254C24.5822 13.176 22.6442 11.466 19.3382 11.466C16.0322 11.466 14.5502 13.176 14.5502 16.938C14.5502 21.612 16.8302 25.26 24.9242 33.582C34.8422 43.728 38.0342 48.972 38.0342 54.786C38.0342 65.502 30.1682 73.026 19.1102 73.026ZM8.28016 10.098C8.85016 9.07199 10.1042 7.362 11.2442 6.44999C12.3842 5.652 12.8402 4.39799 12.3842 4.39799C10.4462 4.17 5.88616 9.64199 5.65816 12.264C5.65816 12.72 5.88616 12.948 6.34216 12.948C7.14016 13.062 7.36816 11.58 8.28016 10.098ZM6.45616 15.228C6.45616 14.772 6.11416 14.43 5.77216 14.43C5.31616 14.43 4.86016 15 4.86016 15.342C4.86016 15.684 5.08816 15.912 5.65816 16.026C6.00016 16.026 6.34216 15.684 6.45616 15.228ZM4.74616 57.294C5.54416 55.242 6.57016 53.988 6.68416 52.734C6.68416 52.392 6.68416 52.164 6.34216 52.164C3.83416 51.936 1.89616 56.382 3.03616 60.03C3.26416 60.6 3.60616 61.17 3.94816 61.17C4.74616 61.17 3.94816 59.346 4.74616 57.294ZM75.2463 72C70.1163 72 69.5463 65.616 69.5463 61.512V44.982C69.5463 43.044 69.3183 42.018 68.0643 42.018H55.8663C54.3843 42.018 53.8143 42.36 53.8143 43.842V60.03C53.8143 64.362 52.7883 72 47.8863 72C42.3003 72 41.0463 66.642 41.0463 60.03V9.756C41.0463 7.932 42.1863 1.77599 47.5443 1.77599C52.1043 1.77599 53.8143 6.678 53.8143 9.984V29.934C53.8143 31.188 54.0423 32.214 55.2963 32.214L68.2923 32.328C69.0903 32.328 69.5463 32.214 69.5463 30.162V10.44C69.5463 4.74 71.4843 1.77599 74.6763 1.77599C77.8683 1.77599 82.3143 4.17 82.3143 10.782V61.626C82.3143 65.844 80.1483 72 75.2463 72ZM42.9843 8.73C43.8963 8.844 46.0623 5.42399 46.4043 4.39799C46.5183 3.942 46.5183 3.03 46.0623 3.144C44.0103 3.6 42.7563 6.906 42.7563 7.818C42.7563 8.04599 42.6423 8.61599 42.9843 8.73ZM73.7643 6.44999C73.8783 5.31 75.3603 3.714 74.4483 3.6C73.3083 3.486 71.7123 5.196 71.3703 7.248C71.2563 8.388 71.4843 8.958 71.9403 9.07199C73.1943 9.186 73.6503 7.01999 73.7643 6.44999ZM45.8343 68.58C45.8343 68.238 45.7203 67.896 45.3783 67.554C44.5803 66.756 44.3523 63.906 44.3523 62.196C44.3523 61.056 44.2383 60.258 43.5543 60.258C42.9843 60.258 42.8703 61.74 42.8703 62.196C42.8703 63.45 43.3263 68.922 45.1503 68.922C45.4923 68.922 45.8343 68.922 45.8343 68.58ZM73.8783 69.036C72.9663 68.124 72.1683 64.59 72.1683 63.222C72.1683 62.994 72.0543 62.766 71.9403 62.766C71.4843 62.766 71.1423 64.134 71.1423 65.388C71.1423 67.212 71.7123 70.062 73.8783 70.062C74.3343 70.062 74.2203 69.378 73.8783 69.036ZM109.77 73.026C93.1255 73.026 85.2595 55.242 85.2595 38.256C85.2595 21.27 92.2135 0.75 109.884 0.75C125.844 0.75 132.912 18.648 132.912 38.826C132.912 55.584 125.844 73.026 109.77 73.026ZM92.4415 18.648C93.2395 18.762 94.9495 14.658 96.5455 12.606C99.8515 8.274 103.5 5.538 103.5 4.85399C103.5 4.626 103.386 4.512 102.93 4.39799C99.2815 4.39799 91.9855 14.43 91.9855 18.078C91.9855 18.306 92.2135 18.648 92.4415 18.648ZM109.77 63.906C118.776 63.906 120.714 48.744 120.714 37.914C120.714 27.084 119.688 11.238 109.884 11.238C100.308 11.238 98.2555 30.96 98.2555 38.256C98.2555 45.666 99.5095 63.906 109.77 63.906ZM92.5555 21.156C92.5555 20.7 92.2135 20.13 91.7575 20.016C91.3015 20.016 90.2755 20.586 90.2755 21.726C90.2755 22.41 90.7315 22.752 91.1875 22.752C91.6435 22.752 92.5555 22.296 92.5555 21.156ZM169.772 72C166.352 72 165.212 69.036 164.186 66.984C162.134 62.88 155.294 45.21 151.418 45.21H150.278C149.48 45.21 148.796 46.464 148.796 48.288V64.248C148.796 68.922 146.288 72 141.956 72C137.282 72 136.256 66.756 136.256 64.134V11.922C136.256 4.056 137.054 1.77599 143.78 1.77599H153.242C163.274 1.77599 173.306 7.59 173.306 21.27C173.306 32.898 166.808 39.51 161.792 41.334C161.45 41.448 161.108 41.79 161.108 42.246C161.108 42.474 161.222 42.816 161.678 43.272C167.948 49.542 175.7 57.18 175.7 67.44C175.7 70.518 172.508 72 169.772 72ZM153.812 34.266C158.372 34.266 162.02 28.68 162.02 21.27C162.02 15.342 160.082 12.264 154.154 12.036L151.418 11.922C149.48 11.808 149.252 12.378 149.252 14.658V32.784C149.252 33.81 149.936 34.266 151.304 34.266H153.812ZM141.728 68.922C141.728 68.124 140.93 68.352 140.588 67.554C139.334 64.59 139.448 61.056 138.536 61.056C138.194 61.056 137.738 61.74 137.738 63.108C137.738 64.362 138.878 70.062 140.816 70.062C141.158 70.062 141.728 69.72 141.728 68.922ZM169.43 69.72C169.316 69.264 168.176 68.58 167.834 68.01C167.492 67.44 166.58 65.274 166.466 63.792C166.466 62.538 165.896 61.17 165.554 61.17C164.984 61.284 164.756 63.108 164.87 65.16C164.984 67.212 166.352 70.518 168.404 70.404C168.974 70.404 169.43 70.062 169.43 69.72ZM194.195 72C191.801 72 188.153 70.176 188.153 67.44V12.15C184.391 12.15 176.297 12.606 176.297 7.01999C176.297 3.714 178.691 1.77599 181.883 1.77599H208.103C210.497 1.77599 211.865 4.39799 211.865 6.564C211.865 11.922 205.937 12.15 201.947 12.15H201.035V66.642C201.035 70.176 197.273 72 194.195 72ZM178.919 8.958C179.147 8.958 179.489 8.61599 179.489 8.16C179.489 6.906 179.945 5.196 180.857 3.82799C181.085 3.486 180.743 3.25799 180.287 3.25799C178.919 3.25799 177.893 5.42399 177.893 7.134C177.893 7.704 178.121 8.958 178.919 8.958ZM192.029 69.378C192.713 69.378 193.055 69.036 193.055 68.352C193.055 68.01 192.941 67.896 192.599 67.782C191.687 67.554 191.345 65.274 191.345 64.59C191.345 63.906 191.915 60.6 190.775 60.6C189.635 60.6 189.521 63.564 189.521 64.248C189.521 65.616 190.091 69.378 192.029 69.378ZM234.806 72.456C223.292 72.456 215.198 69.492 215.198 58.548V11.922C215.198 3.942 220.214 1.77599 224.09 1.77599C228.194 1.77599 244.04 1.77599 246.32 1.77599C249.056 1.77599 250.424 4.284 250.424 6.906C250.424 9.528 249.17 12.606 246.776 12.72L230.702 13.176C229.22 13.176 228.194 14.43 228.194 15.912V26.4C228.194 28.68 228.992 29.82 230.702 29.82L244.268 29.706C247.232 29.706 248.03 32.556 248.03 35.634C248.03 37.572 247.46 40.08 244.382 40.194L231.272 40.65C228.878 40.764 228.194 41.79 228.194 44.184V51.708C228.194 58.092 227.966 61.854 235.718 61.854C240.734 61.854 246.092 58.434 249.056 58.434C251.108 58.434 252.02 62.31 252.02 64.59C252.02 70.746 239.366 72.456 234.806 72.456ZM222.494 65.16C220.67 62.766 219.188 60.372 218.846 58.092C218.618 57.066 218.276 56.496 217.82 56.61C217.364 56.61 217.022 57.408 217.25 58.662C217.592 61.512 219.986 67.098 222.608 66.756C223.064 66.642 223.178 66.072 222.494 65.16ZM262.087 72C256.843 72 256.045 65.502 256.045 60.258V7.818C256.045 3.714 258.895 1.77599 261.517 1.77599C265.507 1.77599 269.155 3.25799 272.005 8.958C277.363 19.56 280.897 27.198 286.027 37.8C286.825 39.51 287.623 40.65 288.307 40.65C288.763 40.65 289.105 39.966 289.105 38.598V10.554C289.105 5.652 289.789 1.77599 295.603 1.77599C301.303 1.77599 301.189 5.538 301.189 7.932V59.118C301.189 66.642 300.163 72 296.743 72C293.779 72 290.929 69.492 289.561 67.326C288.193 65.16 275.767 44.412 270.637 32.214C269.953 30.504 269.497 29.706 269.041 29.706C268.471 29.706 268.243 32.1 268.243 37.344V55.47C268.243 67.326 266.419 72 262.087 72ZM292.639 9.64199C293.095 8.388 293.323 5.99399 294.121 4.968C294.919 3.942 294.007 3.37199 293.551 3.25799C291.841 3.03 290.017 11.352 291.613 11.58C291.727 11.58 292.183 11.238 292.639 9.64199ZM258.895 9.984C259.123 8.502 259.693 6.222 260.149 5.196C260.605 4.284 260.605 3.6 260.149 3.6C259.693 3.6 259.009 3.82799 258.211 5.766C257.413 7.704 256.957 12.948 257.869 12.948C258.439 12.948 258.667 11.922 258.895 9.984ZM258.895 16.14C258.895 15.912 258.781 15.342 258.325 15.342C257.755 15.342 257.527 16.026 257.527 16.14C257.527 16.71 257.641 17.166 258.097 17.166C258.553 17.166 258.895 16.71 258.895 16.14ZM261.745 69.378C261.745 68.808 259.465 66.984 259.465 63.564C259.465 62.652 259.237 62.31 258.895 62.31C258.553 62.31 258.325 62.766 258.325 63.906C258.325 66.87 260.035 69.948 261.175 69.948C261.403 69.948 261.745 69.606 261.745 69.378ZM359.083 72.456C345.289 72.456 336.853 62.082 336.853 46.806V11.58C336.853 8.502 337.879 1.77599 342.895 1.77599C347.911 1.77599 349.849 3.6 349.849 11.808V46.008C349.849 53.418 348.937 61.626 359.539 61.626C369.571 61.626 369.001 48.858 369.001 39.624V11.466C369.001 8.388 369.913 1.548 374.701 1.548C379.375 1.548 381.883 4.512 381.883 11.352V43.956C381.883 61.17 374.131 72.456 359.083 72.456ZM372.193 8.61599C372.193 8.04599 372.649 6.564 373.675 5.42399C374.929 3.82799 375.043 3.25799 373.675 3.25799C372.991 3.25799 372.193 4.17 371.737 4.968C371.395 5.652 370.711 7.01999 370.597 8.388C370.597 9.186 370.711 9.984 371.395 9.984C372.193 9.984 372.193 9.414 372.193 8.61599ZM341.641 7.01999C342.211 5.652 343.351 4.85399 343.351 3.82799C343.351 3.486 343.237 3.25799 343.009 3.25799C342.553 3.25799 341.527 3.6 340.729 4.74C338.449 7.932 338.335 11.01 339.247 11.01C339.931 11.01 340.843 9.186 341.641 7.01999ZM349.507 66.528C349.507 66.072 348.139 65.16 346.885 63.792C345.745 62.538 343.807 60.372 342.781 58.092C342.097 56.61 341.299 56.04 340.957 56.04C340.615 56.04 340.501 56.268 340.501 56.838C340.615 59.346 345.745 67.212 348.823 67.212C349.279 67.212 349.507 66.984 349.507 66.528ZM352.129 67.554C352.129 67.44 351.673 66.756 351.217 66.756C350.533 66.87 350.191 67.44 350.191 67.782C350.305 68.238 350.419 68.694 351.103 68.58C351.673 68.58 352.129 68.124 352.129 67.554ZM419.258 72C415.838 72 414.698 69.036 413.672 66.984C411.62 62.88 404.78 45.21 400.904 45.21H399.764C398.966 45.21 398.282 46.464 398.282 48.288V64.248C398.282 68.922 395.774 72 391.442 72C386.768 72 385.742 66.756 385.742 64.134V11.922C385.742 4.056 386.54 1.77599 393.266 1.77599H402.728C412.76 1.77599 422.792 7.59 422.792 21.27C422.792 32.898 416.294 39.51 411.278 41.334C410.936 41.448 410.594 41.79 410.594 42.246C410.594 42.474 410.708 42.816 411.164 43.272C417.434 49.542 425.186 57.18 425.186 67.44C425.186 70.518 421.994 72 419.258 72ZM403.298 34.266C407.858 34.266 411.506 28.68 411.506 21.27C411.506 15.342 409.568 12.264 403.64 12.036L400.904 11.922C398.966 11.808 398.738 12.378 398.738 14.658V32.784C398.738 33.81 399.422 34.266 400.79 34.266H403.298ZM391.214 68.922C391.214 68.124 390.416 68.352 390.074 67.554C388.82 64.59 388.934 61.056 388.022 61.056C387.68 61.056 387.224 61.74 387.224 63.108C387.224 64.362 388.364 70.062 390.302 70.062C390.644 70.062 391.214 69.72 391.214 68.922ZM418.916 69.72C418.802 69.264 417.662 68.58 417.32 68.01C416.978 67.44 416.066 65.274 415.952 63.792C415.952 62.538 415.382 61.17 415.04 61.17C414.47 61.284 414.242 63.108 414.356 65.16C414.47 67.212 415.838 70.518 417.89 70.404C418.46 70.404 418.916 70.062 418.916 69.72ZM432.053 72C430.343 72 428.861 70.632 428.861 68.922V8.958C428.861 5.766 429.431 1.77599 435.473 1.77599C438.893 1.77599 441.857 5.196 441.857 8.16V58.206C441.857 60.942 443.111 61.284 444.479 61.284C449.723 61.284 452.117 60.942 457.361 60.942C459.527 60.942 460.097 63.792 460.097 65.844C460.097 68.922 457.703 72.114 455.651 72.114C453.713 72.114 451.889 72.114 450.293 72.114L440.831 72C439.235 72 433.991 72 432.053 72ZM430.913 9.414C431.825 9.414 433.991 4.626 434.105 3.714C434.105 3.37199 433.649 3.144 433.193 3.144C431.597 3.25799 430.115 7.47599 430.343 8.73C430.343 9.07199 430.571 9.414 430.913 9.414ZM432.167 65.274C433.649 65.274 433.307 57.522 433.307 54.33C433.307 53.076 433.079 50.226 431.711 50.226C430.799 50.226 430.799 56.382 430.799 57.18C430.799 58.092 431.027 65.274 432.167 65.274ZM434.105 68.58C434.105 67.896 433.649 67.326 433.307 67.326C432.509 67.326 432.167 67.896 432.167 68.58C432.167 69.15 432.509 69.492 433.079 69.492C433.535 69.492 434.105 69.15 434.105 68.58Z" fill="white"/>
</svg>
